<svg version="1.1" id="Layer_1" xmlns="http://www.w3.org/2000/svg" xmlns:xlink="http://www.w3.org/1999/xlink" x="0px" y="0px"
	 width="100%" viewBox="0 0 512 512" enable-background="new 0 0 512 512" xml:space="preserve">
<path fill="#000000" opacity="1.000000" stroke="none" 
	d="
M301.000000,513.000000 
	C200.691025,513.000000 100.882042,513.000000 1.036533,513.000000 
	C1.036533,342.399323 1.036533,171.798660 1.036533,1.098988 
	C171.558990,1.098988 342.118042,1.098988 512.838562,1.098988 
	C512.838562,171.666550 512.838562,342.333252 512.838562,513.000000 
	C442.465302,513.000000 371.982635,513.000000 301.000000,513.000000 
M307.500000,405.999359 
	C338.998840,405.999451 370.502747,405.675110 401.993805,406.170288 
	C413.484589,406.351013 423.209167,395.812103 423.364441,386.354553 
	C423.544678,375.378357 412.774872,365.760834 402.191528,365.837158 
	C351.696106,366.201233 301.196625,366.000519 250.698593,366.000610 
	C233.199265,366.000671 215.699188,366.072205 198.201828,365.885925 
	C196.513123,365.867950 193.668762,364.560486 193.341476,363.326355 
	C189.673080,349.493530 186.393570,335.557587 182.851440,321.000000 
	C185.138596,321.000000 187.071396,321.000000 189.004196,321.000000 
	C270.834351,321.000000 352.664948,320.878479 434.494141,321.161987 
	C444.145477,321.195435 452.023987,313.108063 453.901642,305.994537 
	C459.340637,285.388824 464.651978,264.748932 469.916351,244.097687 
	C479.962372,204.689148 489.742401,165.211395 500.057892,125.873810 
	C503.568512,112.486305 492.564545,99.727905 479.642822,99.771858 
	C364.648590,100.162979 249.652481,99.986168 134.656982,100.055695 
	C130.760361,100.058052 128.739426,99.645355 127.715401,94.899147 
	C124.247955,78.827972 119.953751,62.934185 115.922806,46.985928 
	C113.205742,36.235989 106.405525,30.044609 97.124771,30.019642 
	C74.959122,29.960011 52.792973,29.939774 30.627514,30.027855 
	C20.686050,30.067362 10.887189,43.068695 13.253440,52.691051 
	C16.092955,64.237946 23.914635,69.930916 35.648067,69.983955 
	C50.622547,70.051628 65.597565,70.000351 80.554893,70.000351 
	C82.686134,78.739891 84.737457,87.102051 86.763901,95.470230 
	C95.227501,130.420593 103.597160,165.393951 112.166954,200.318222 
	C120.620125,234.767197 129.324539,269.154419 137.822510,303.592468 
	C144.958206,332.509918 151.978668,361.455933 159.000519,390.401337 
	C161.246384,399.659241 169.260284,405.997314 179.004944,405.998138 
	C221.503296,406.001801 264.001648,405.999512 307.500000,405.999359 
M235.969498,428.462708 
	C227.867569,421.734985 218.371887,419.285339 208.328064,421.460693 
	C191.711395,425.059601 180.290588,440.534454 183.894226,458.987732 
	C187.719406,478.575500 208.363861,489.008636 226.553452,482.090729 
	C248.653854,473.685455 253.582504,445.348511 235.969498,428.462708 
M381.950165,421.056641 
	C379.617523,421.037750 377.282410,420.939117 374.952667,421.012360 
	C353.606537,421.683380 340.499603,440.648773 345.917053,461.668610 
	C349.243469,474.575226 361.221680,484.663879 377.793549,484.093079 
	C393.974731,483.535828 407.052094,470.576416 407.960175,454.308655 
	C408.808960,439.102020 398.980286,425.128571 381.950165,421.056641 
z"/>
<path fill="#E82C5B" opacity="1.000000" stroke="none" 
	d="
M307.000000,405.999359 
	C264.001648,405.999512 221.503296,406.001801 179.004944,405.998138 
	C169.260284,405.997314 161.246384,399.659241 159.000519,390.401337 
	C151.978668,361.455933 144.958206,332.509918 137.822510,303.592468 
	C129.324539,269.154419 120.620125,234.767197 112.166954,200.318222 
	C103.597160,165.393951 95.227501,130.420593 86.763901,95.470230 
	C84.737457,87.102051 82.686134,78.739891 80.554893,70.000351 
	C65.597565,70.000351 50.622547,70.051628 35.648067,69.983955 
	C23.914635,69.930916 16.092955,64.237946 13.253440,52.691051 
	C10.887189,43.068695 20.686050,30.067362 30.627514,30.027855 
	C52.792973,29.939774 74.959122,29.960011 97.124771,30.019642 
	C106.405525,30.044609 113.205742,36.235989 115.922806,46.985928 
	C119.953751,62.934185 124.247955,78.827972 127.715401,94.899147 
	C128.739426,99.645355 130.760361,100.058052 134.656982,100.055695 
	C249.652481,99.986168 364.648590,100.162979 479.642822,99.771858 
	C492.564545,99.727905 503.568512,112.486305 500.057892,125.873810 
	C489.742401,165.211395 479.962372,204.689148 469.916351,244.097687 
	C464.651978,264.748932 459.340637,285.388824 453.901642,305.994537 
	C452.023987,313.108063 444.145477,321.195435 434.494141,321.161987 
	C352.664948,320.878479 270.834351,321.000000 189.004196,321.000000 
	C187.071396,321.000000 185.138596,321.000000 182.851440,321.000000 
	C186.393570,335.557587 189.673080,349.493530 193.341476,363.326355 
	C193.668762,364.560486 196.513123,365.867950 198.201828,365.885925 
	C215.699188,366.072205 233.199265,366.000671 250.698593,366.000610 
	C301.196625,366.000519 351.696106,366.201233 402.191528,365.837158 
	C412.774872,365.760834 423.544678,375.378357 423.364441,386.354553 
	C423.209167,395.812103 413.484589,406.351013 401.993805,406.170288 
	C370.502747,405.675110 338.998840,405.999451 307.000000,405.999359 
z"/>
<path fill="#E82C5B" opacity="1.000000" stroke="none" 
	d="
M236.223938,428.723969 
	C253.582504,445.348511 248.653854,473.685455 226.553452,482.090729 
	C208.363861,489.008636 187.719406,478.575500 183.894226,458.987732 
	C180.290588,440.534454 191.711395,425.059601 208.328064,421.460693 
	C218.371887,419.285339 227.867569,421.734985 236.223938,428.723969 
z"/>
<path fill="#E82C5B" opacity="1.000000" stroke="none" 
	d="
M382.370514,421.190674 
	C398.980286,425.128571 408.808960,439.102020 407.960175,454.308655 
	C407.052094,470.576416 393.974731,483.535828 377.793549,484.093079 
	C361.221680,484.663879 349.243469,474.575226 345.917053,461.668610 
	C340.499603,440.648773 353.606537,421.683380 374.952667,421.012360 
	C377.282410,420.939117 379.617523,421.037750 382.370514,421.190674 
z"/>
</svg>